<svg width="304" height="63" viewBox="0 0 304 63" fill="none" xmlns="http://www.w3.org/2000/svg">
<path d="M77.7672 44.1968H73.8697V14.6412H77.7672V44.1968ZM87.8762 22.2331L87.9979 24.9938C89.676 22.8827 91.8683 21.8271 94.5749 21.8271C99.2166 21.8271 101.558 24.4457 101.598 29.6829V44.1968H97.843V29.6626C97.8295 28.0793 97.4641 26.9087 96.7469 26.1508C96.0432 25.393 94.9403 25.0141 93.4381 25.0141C92.2202 25.0141 91.1511 25.3389 90.2309 25.9884C89.3106 26.638 88.5934 27.4906 88.0791 28.5461V44.1968H84.3238V22.2331H87.8762ZM120.05 38.3709C120.05 37.356 119.665 36.5711 118.893 36.0162C118.135 35.4478 116.802 34.9607 114.894 34.5547C113 34.1487 111.491 33.6615 110.368 33.0931C109.258 32.5248 108.432 31.8481 107.891 31.0632C107.363 30.2783 107.099 29.3446 107.099 28.2619C107.099 26.4621 107.857 24.9397 109.373 23.6946C110.902 22.4496 112.851 21.8271 115.219 21.8271C117.709 21.8271 119.726 22.4699 121.268 23.7555C122.825 25.0412 123.603 26.6854 123.603 28.6882H119.827C119.827 27.6597 119.387 26.7733 118.508 26.029C117.641 25.2847 116.545 24.9126 115.219 24.9126C113.852 24.9126 112.783 25.2103 112.012 25.8058C111.24 26.4012 110.855 27.1793 110.855 28.1402C110.855 29.0468 111.213 29.7303 111.931 30.1904C112.648 30.6505 113.94 31.0903 115.808 31.5098C117.689 31.9293 119.211 32.43 120.375 33.0119C121.539 33.5939 122.398 34.2976 122.953 35.1231C123.521 35.935 123.806 36.9297 123.806 38.107C123.806 40.0693 123.021 41.6459 121.451 42.8367C119.881 44.0141 117.844 44.6028 115.341 44.6028C113.582 44.6028 112.025 44.2915 110.672 43.669C109.319 43.0465 108.256 42.1804 107.485 41.0707C106.727 39.9475 106.348 38.7363 106.348 37.4372H110.104C110.171 38.6957 110.672 39.6971 111.606 40.4414C112.553 41.1722 113.798 41.5376 115.341 41.5376C116.762 41.5376 117.899 41.2534 118.751 40.685C119.617 40.1031 120.05 39.3317 120.05 38.3709ZM142.258 42.0248C140.796 43.7434 138.651 44.6028 135.823 44.6028C133.482 44.6028 131.695 43.9261 130.464 42.5728C129.246 41.206 128.63 39.1897 128.617 36.5237V22.2331H132.372V36.4222C132.372 39.7513 133.725 41.4158 136.432 41.4158C139.301 41.4158 141.209 40.3467 142.156 38.2085V22.2331H145.911V44.1968H142.339L142.258 42.0248ZM162.252 25.6028C161.684 25.508 161.068 25.4607 160.405 25.4607C157.942 25.4607 156.271 26.5095 155.391 28.607V44.1968H151.636V22.2331H155.29L155.351 24.7705C156.582 22.8082 158.328 21.8271 160.588 21.8271C161.318 21.8271 161.873 21.9218 162.252 22.1113V25.6028ZM178.471 44.1968C178.255 43.7637 178.079 42.9924 177.943 41.8827C176.198 43.6961 174.114 44.6028 171.691 44.6028C169.526 44.6028 167.747 43.9938 166.353 42.7758C164.972 41.5444 164.282 39.9881 164.282 38.107C164.282 35.82 165.148 34.0472 166.88 32.7887C168.626 31.5166 171.076 30.8805 174.229 30.8805H177.883V29.1551C177.883 27.8424 177.49 26.8004 176.705 26.029C175.92 25.2441 174.763 24.8517 173.234 24.8517C171.894 24.8517 170.771 25.19 169.864 25.8667C168.958 26.5433 168.504 27.362 168.504 28.3228H164.729C164.729 27.2267 165.114 26.1711 165.886 25.1562C166.671 24.1277 167.726 23.3157 169.052 22.7203C170.392 22.1248 171.86 21.8271 173.457 21.8271C175.988 21.8271 177.971 22.4632 179.405 23.7352C180.839 24.9938 181.584 26.7327 181.638 28.9521V39.0611C181.638 41.0775 181.895 42.6811 182.409 43.872V44.1968H178.471ZM172.239 41.3346C173.417 41.3346 174.533 41.0301 175.589 40.4211C176.644 39.8122 177.409 39.0205 177.883 38.0461V33.5397H174.939C170.338 33.5397 168.037 34.8862 168.037 37.5793C168.037 38.7566 168.43 39.6768 169.215 40.3399C170 41.003 171.008 41.3346 172.239 41.3346ZM191.077 22.2331L191.199 24.9938C192.877 22.8827 195.069 21.8271 197.776 21.8271C202.417 21.8271 204.759 24.4457 204.799 29.6829V44.1968H201.044V29.6626C201.03 28.0793 200.665 26.9087 199.948 26.1508C199.244 25.393 198.141 25.0141 196.639 25.0141C195.421 25.0141 194.352 25.3389 193.432 25.9884C192.511 26.638 191.794 27.4906 191.28 28.5461V44.1968H187.525V22.2331H191.077ZM219.273 41.5376C220.612 41.5376 221.783 41.1316 222.784 40.3196C223.786 39.5077 224.341 38.4927 224.449 37.2748H228.001C227.933 38.5333 227.5 39.731 226.702 40.8677C225.904 42.0045 224.834 42.9112 223.495 43.5878C222.169 44.2644 220.761 44.6028 219.273 44.6028C216.282 44.6028 213.9 43.6081 212.127 41.6188C210.368 39.6159 209.488 36.8823 209.488 33.4179V32.7887C209.488 30.6505 209.881 28.7491 210.666 27.0846C211.451 25.4201 212.574 24.1277 214.035 23.2075C215.51 22.2872 217.249 21.8271 219.252 21.8271C221.715 21.8271 223.759 22.5647 225.383 24.0397C227.02 25.5148 227.893 27.4297 228.001 29.7844H224.449C224.341 28.3634 223.799 27.1996 222.825 26.2929C221.864 25.3727 220.673 24.9126 219.252 24.9126C217.344 24.9126 215.862 25.6028 214.807 26.9831C213.765 28.3499 213.244 30.3325 213.244 32.9308V33.6412C213.244 36.1718 213.765 38.1206 214.807 39.4874C215.849 40.8542 217.337 41.5376 219.273 41.5376ZM241.338 44.6028C238.36 44.6028 235.938 43.6284 234.071 41.6797C232.203 39.7174 231.269 37.0988 231.269 33.8239V33.1337C231.269 30.955 231.682 29.013 232.508 27.3079C233.347 25.5892 234.51 24.2495 235.999 23.2887C237.501 22.3143 239.125 21.8271 240.871 21.8271C243.726 21.8271 245.946 22.7676 247.529 24.6487C249.112 26.5298 249.904 29.2228 249.904 32.7278V34.2908H235.025C235.079 36.456 235.708 38.2085 236.912 39.5483C238.13 40.8745 239.673 41.5376 241.541 41.5376C242.867 41.5376 243.99 41.2669 244.91 40.7256C245.831 40.1843 246.636 39.4671 247.326 38.5739L249.62 40.3602C247.779 43.1886 245.019 44.6028 241.338 44.6028ZM240.871 24.9126C239.355 24.9126 238.083 25.4674 237.055 26.5771C236.026 27.6733 235.39 29.216 235.146 31.2053H246.149V30.9211C246.04 29.013 245.526 27.5379 244.606 26.4959C243.686 25.4404 242.441 24.9126 240.871 24.9126ZM258.348 44.1968H254.593V22.2331H258.348V44.1968ZM254.289 16.4072C254.289 15.7983 254.471 15.284 254.837 14.8645C255.216 14.445 255.77 14.2352 256.501 14.2352C257.232 14.2352 257.787 14.445 258.166 14.8645C258.545 15.284 258.734 15.7983 258.734 16.4072C258.734 17.0162 258.545 17.5237 258.166 17.9297C257.787 18.3357 257.232 18.5387 256.501 18.5387C255.77 18.5387 255.216 18.3357 254.837 17.9297C254.471 17.5237 254.289 17.0162 254.289 16.4072ZM266.224 44.1968V25.1359H262.753V22.2331H266.224V19.9799C266.224 17.6252 266.854 15.805 268.112 14.5194C269.371 13.2338 271.15 12.591 273.451 12.591C274.317 12.591 275.176 12.706 276.029 12.9361L275.826 15.981C275.19 15.8592 274.513 15.7983 273.796 15.7983C272.578 15.7983 271.638 16.1569 270.974 16.8741C270.311 17.5778 269.98 18.5928 269.98 19.919V22.2331H274.669V25.1359H269.98V44.1968H266.224ZM286.016 38.6957L291.131 22.2331H295.151L286.321 47.5867C284.954 51.2406 282.782 53.0675 279.805 53.0675L279.094 53.0066L277.693 52.7427V49.6978L278.708 49.779C279.98 49.779 280.968 49.5219 281.672 49.0077C282.389 48.4934 282.978 47.5529 283.438 46.1861L284.27 43.9532L276.435 22.2331H280.535L286.016 38.6957Z" fill="white"/>
<path fill-rule="evenodd" clip-rule="evenodd" d="M0 10.3932L23.3846 0L46.7692 10.3932V34.0791C46.7692 43.5152 41.6534 52.2096 33.4047 56.7922L23.3846 62.359L13.3645 56.7922C5.11582 52.2096 0 43.5152 0 34.0791V10.3932ZM14.0676 27.5047L15.9049 29.342L20.7864 34.2235L33.4625 21.5475L35.2997 19.7102L38.9743 23.3848L37.137 25.222L22.6235 39.7355L20.7862 41.5728L17.1117 37.8983L17.1119 37.8981L12.2304 33.0165L10.3931 31.1792L14.0676 27.5047Z" fill="white"/>
</svg>
