<svg width="117" height="24" viewBox="0 0 117 24" fill="none" xmlns="http://www.w3.org/2000/svg">
<path d="M28.9297 17H27.4297V5.625H28.9297V17ZM32.8203 8.54688L32.8672 9.60938C33.513 8.79688 34.3568 8.39062 35.3984 8.39062C37.1849 8.39062 38.0859 9.39844 38.1016 11.4141V17H36.6562V11.4062C36.651 10.7969 36.5104 10.3464 36.2344 10.0547C35.9635 9.76302 35.5391 9.61719 34.9609 9.61719C34.4922 9.61719 34.0807 9.74219 33.7266 9.99219C33.3724 10.2422 33.0964 10.5703 32.8984 10.9766V17H31.4531V8.54688H32.8203ZM45.2031 14.7578C45.2031 14.3672 45.0547 14.0651 44.7578 13.8516C44.4661 13.6328 43.9531 13.4453 43.2188 13.2891C42.4896 13.1328 41.9089 12.9453 41.4766 12.7266C41.0495 12.5078 40.7318 12.2474 40.5234 11.9453C40.3203 11.6432 40.2188 11.2839 40.2188 10.8672C40.2188 10.1745 40.5104 9.58854 41.0938 9.10938C41.6823 8.63021 42.4323 8.39062 43.3438 8.39062C44.3021 8.39062 45.0781 8.63802 45.6719 9.13281C46.2708 9.6276 46.5703 10.2604 46.5703 11.0312H45.1172C45.1172 10.6354 44.9479 10.2943 44.6094 10.0078C44.276 9.72135 43.8542 9.57812 43.3438 9.57812C42.8177 9.57812 42.4062 9.69271 42.1094 9.92188C41.8125 10.151 41.6641 10.4505 41.6641 10.8203C41.6641 11.1693 41.8021 11.4323 42.0781 11.6094C42.3542 11.7865 42.8516 11.9557 43.5703 12.1172C44.2943 12.2786 44.8802 12.4714 45.3281 12.6953C45.776 12.9193 46.1068 13.1901 46.3203 13.5078C46.5391 13.8203 46.6484 14.2031 46.6484 14.6562C46.6484 15.4115 46.3464 16.0182 45.7422 16.4766C45.138 16.9297 44.3542 17.1562 43.3906 17.1562C42.7135 17.1562 42.1146 17.0365 41.5938 16.7969C41.0729 16.5573 40.6641 16.224 40.3672 15.7969C40.0755 15.3646 39.9297 14.8984 39.9297 14.3984H41.375C41.401 14.8828 41.5938 15.2682 41.9531 15.5547C42.3177 15.8359 42.7969 15.9766 43.3906 15.9766C43.9375 15.9766 44.375 15.8672 44.7031 15.6484C45.0365 15.4245 45.2031 15.1276 45.2031 14.7578ZM53.75 16.1641C53.1875 16.8255 52.362 17.1562 51.2734 17.1562C50.3724 17.1562 49.6849 16.8958 49.2109 16.375C48.7422 15.849 48.5052 15.0729 48.5 14.0469V8.54688H49.9453V14.0078C49.9453 15.2891 50.4661 15.9297 51.5078 15.9297C52.612 15.9297 53.3464 15.5182 53.7109 14.6953V8.54688H55.1562V17H53.7812L53.75 16.1641ZM61.4453 9.84375C61.2266 9.80729 60.9896 9.78906 60.7344 9.78906C59.7865 9.78906 59.1432 10.1927 58.8047 11V17H57.3594V8.54688H58.7656L58.7891 9.52344C59.263 8.76823 59.9349 8.39062 60.8047 8.39062C61.0859 8.39062 61.2995 8.42708 61.4453 8.5V9.84375ZM67.6875 17C67.6042 16.8333 67.5365 16.5365 67.4844 16.1094C66.8125 16.8073 66.0104 17.1562 65.0781 17.1562C64.2448 17.1562 63.5599 16.9219 63.0234 16.4531C62.4922 15.9792 62.2266 15.3802 62.2266 14.6562C62.2266 13.776 62.5599 13.0938 63.2266 12.6094C63.8984 12.1198 64.8411 11.875 66.0547 11.875H67.4609V11.2109C67.4609 10.7057 67.3099 10.3047 67.0078 10.0078C66.7057 9.70573 66.2604 9.55469 65.6719 9.55469C65.1562 9.55469 64.724 9.6849 64.375 9.94531C64.026 10.2057 63.8516 10.5208 63.8516 10.8906H62.3984C62.3984 10.4688 62.5469 10.0625 62.8438 9.67188C63.1458 9.27604 63.5521 8.96354 64.0625 8.73438C64.5781 8.50521 65.1432 8.39062 65.7578 8.39062C66.7318 8.39062 67.4948 8.63542 68.0469 9.125C68.599 9.60938 68.8854 10.2786 68.9062 11.1328V15.0234C68.9062 15.7995 69.0052 16.4167 69.2031 16.875V17H67.6875ZM65.2891 15.8984C65.7422 15.8984 66.1719 15.7812 66.5781 15.5469C66.9844 15.3125 67.2786 15.0078 67.4609 14.6328V12.8984H66.3281C64.5573 12.8984 63.6719 13.4167 63.6719 14.4531C63.6719 14.9062 63.8229 15.2604 64.125 15.5156C64.4271 15.7708 64.8151 15.8984 65.2891 15.8984ZM72.5391 8.54688L72.5859 9.60938C73.2318 8.79688 74.0755 8.39062 75.1172 8.39062C76.9036 8.39062 77.8047 9.39844 77.8203 11.4141V17H76.375V11.4062C76.3698 10.7969 76.2292 10.3464 75.9531 10.0547C75.6823 9.76302 75.2578 9.61719 74.6797 9.61719C74.2109 9.61719 73.7995 9.74219 73.4453 9.99219C73.0911 10.2422 72.8151 10.5703 72.6172 10.9766V17H71.1719V8.54688H72.5391ZM83.3906 15.9766C83.9062 15.9766 84.3568 15.8203 84.7422 15.5078C85.1276 15.1953 85.3411 14.8047 85.3828 14.3359H86.75C86.724 14.8203 86.5573 15.2812 86.25 15.7188C85.9427 16.1562 85.5312 16.5052 85.0156 16.7656C84.5052 17.026 83.9635 17.1562 83.3906 17.1562C82.2396 17.1562 81.3229 16.7734 80.6406 16.0078C79.9635 15.237 79.625 14.1849 79.625 12.8516V12.6094C79.625 11.7865 79.776 11.0547 80.0781 10.4141C80.3802 9.77344 80.8125 9.27604 81.375 8.92188C81.9427 8.56771 82.612 8.39062 83.3828 8.39062C84.3307 8.39062 85.1172 8.67448 85.7422 9.24219C86.3724 9.8099 86.7083 10.5469 86.75 11.4531H85.3828C85.3411 10.9062 85.1328 10.4583 84.7578 10.1094C84.388 9.75521 83.9297 9.57812 83.3828 9.57812C82.6484 9.57812 82.0781 9.84375 81.6719 10.375C81.2708 10.901 81.0703 11.6641 81.0703 12.6641V12.9375C81.0703 13.9115 81.2708 14.6615 81.6719 15.1875C82.0729 15.7135 82.6458 15.9766 83.3906 15.9766ZM91.8828 17.1562C90.737 17.1562 89.8047 16.7812 89.0859 16.0312C88.3672 15.276 88.0078 14.2682 88.0078 13.0078V12.7422C88.0078 11.9036 88.1667 11.1562 88.4844 10.5C88.8073 9.83854 89.2552 9.32292 89.8281 8.95312C90.4062 8.57812 91.0312 8.39062 91.7031 8.39062C92.8021 8.39062 93.6562 8.7526 94.2656 9.47656C94.875 10.2005 95.1797 11.237 95.1797 12.5859V13.1875H89.4531C89.474 14.0208 89.7161 14.6953 90.1797 15.2109C90.6484 15.7214 91.2422 15.9766 91.9609 15.9766C92.4714 15.9766 92.9036 15.8724 93.2578 15.6641C93.612 15.4557 93.9219 15.1797 94.1875 14.8359L95.0703 15.5234C94.362 16.612 93.2995 17.1562 91.8828 17.1562ZM91.7031 9.57812C91.1198 9.57812 90.6302 9.79167 90.2344 10.2188C89.8385 10.6406 89.5938 11.2344 89.5 12H93.7344V11.8906C93.6927 11.1562 93.4948 10.5885 93.1406 10.1875C92.7865 9.78125 92.3073 9.57812 91.7031 9.57812ZM98.4297 17H96.9844V8.54688H98.4297V17ZM96.8672 6.30469C96.8672 6.07031 96.9375 5.8724 97.0781 5.71094C97.224 5.54948 97.4375 5.46875 97.7188 5.46875C98 5.46875 98.2135 5.54948 98.3594 5.71094C98.5052 5.8724 98.5781 6.07031 98.5781 6.30469C98.5781 6.53906 98.5052 6.73438 98.3594 6.89062C98.2135 7.04688 98 7.125 97.7188 7.125C97.4375 7.125 97.224 7.04688 97.0781 6.89062C96.9375 6.73438 96.8672 6.53906 96.8672 6.30469ZM101.461 17V9.66406H100.125V8.54688H101.461V7.67969C101.461 6.77344 101.703 6.07292 102.188 5.57812C102.672 5.08333 103.357 4.83594 104.242 4.83594C104.576 4.83594 104.906 4.88021 105.234 4.96875L105.156 6.14062C104.911 6.09375 104.651 6.07031 104.375 6.07031C103.906 6.07031 103.544 6.20833 103.289 6.48438C103.034 6.75521 102.906 7.14583 102.906 7.65625V8.54688H104.711V9.66406H102.906V17H101.461ZM109.078 14.8828L111.047 8.54688H112.594L109.195 18.3047C108.669 19.7109 107.833 20.4141 106.688 20.4141L106.414 20.3906L105.875 20.2891V19.1172L106.266 19.1484C106.755 19.1484 107.135 19.0495 107.406 18.8516C107.682 18.6536 107.909 18.2917 108.086 17.7656L108.406 16.9062L105.391 8.54688H106.969L109.078 14.8828Z" fill="#0759E8"/>
<path d="M0 4L9 0L18 4V13.116C18 16.7476 16.0311 20.0938 12.8564 21.8575L9 24L5.14357 21.8575C1.96892 20.0938 0 16.7476 0 13.116V4Z" fill="url(#paint0_linear)"/>
<path d="M5.41418 12L7.99997 14.5858" stroke="white" stroke-width="2" stroke-linecap="square"/>
<path d="M8 14.5858L13.5858 9" stroke="white" stroke-width="2" stroke-linecap="square"/>
<defs>
<linearGradient id="paint0_linear" x1="2.01166e-07" y1="3" x2="15.5" y2="21" gradientUnits="userSpaceOnUse">
<stop offset="0.0001" stop-color="#6A9FFB"/>
<stop offset="1" stop-color="#0646B7"/>
</linearGradient>
</defs>
</svg>
